<mxfile host="app.diagrams.net" modified="2023-11-23T04:22:59.124Z" agent="Mozilla/5.0 (X11; Ubuntu; Linux x86_64; rv:109.0) Gecko/20100101 Firefox/119.0" etag="wEwtPEJWWiN6fX7ESZQu" version="22.1.3" type="github">
  <diagram name="Page-1" id="d4vC3ypG-JMgksOrX72h">
    <mxGraphModel dx="2214" dy="795" grid="1" gridSize="10" guides="1" tooltips="1" connect="1" arrows="1" fold="1" page="1" pageScale="1" pageWidth="850" pageHeight="1100" math="0" shadow="0">
      <root>
        <mxCell id="0" />
        <mxCell id="1" parent="0" />
        <mxCell id="nxoZyWAHLM6JI2tXpM9c-11" value="End" style="ellipse;whiteSpace=wrap;html=1;rotation=0;" vertex="1" parent="1">
          <mxGeometry x="-710" y="288" width="100" height="50" as="geometry" />
        </mxCell>
        <mxCell id="nxoZyWAHLM6JI2tXpM9c-173" style="edgeStyle=orthogonalEdgeStyle;rounded=0;orthogonalLoop=1;jettySize=auto;html=1;exitX=1;exitY=0.5;exitDx=0;exitDy=0;" edge="1" parent="1" source="nxoZyWAHLM6JI2tXpM9c-28">
          <mxGeometry relative="1" as="geometry">
            <mxPoint x="310" y="810" as="targetPoint" />
          </mxGeometry>
        </mxCell>
        <mxCell id="nxoZyWAHLM6JI2tXpM9c-28" value="remain_burst_time -= 1" style="whiteSpace=wrap;html=1;" vertex="1" parent="1">
          <mxGeometry x="-432.49" y="940" width="154.99" height="30" as="geometry" />
        </mxCell>
        <mxCell id="nxoZyWAHLM6JI2tXpM9c-163" style="edgeStyle=orthogonalEdgeStyle;rounded=0;orthogonalLoop=1;jettySize=auto;html=1;exitX=0.5;exitY=1;exitDx=0;exitDy=0;entryX=0.5;entryY=0;entryDx=0;entryDy=0;" edge="1" parent="1" source="nxoZyWAHLM6JI2tXpM9c-41" target="nxoZyWAHLM6JI2tXpM9c-43">
          <mxGeometry relative="1" as="geometry" />
        </mxCell>
        <mxCell id="nxoZyWAHLM6JI2tXpM9c-41" value="remaining_burst_time = burst_time&lt;br&gt;&lt;div&gt;start_time = run_time&lt;/div&gt;&lt;div&gt;waiting_time = start_time - arrival_time&lt;br&gt;&lt;/div&gt;" style="rounded=0;whiteSpace=wrap;html=1;" vertex="1" parent="1">
          <mxGeometry x="-482.81000000000006" y="690" width="255.62" height="60" as="geometry" />
        </mxCell>
        <mxCell id="nxoZyWAHLM6JI2tXpM9c-170" style="edgeStyle=orthogonalEdgeStyle;rounded=0;orthogonalLoop=1;jettySize=auto;html=1;exitX=1;exitY=0.5;exitDx=0;exitDy=0;entryX=0;entryY=0.5;entryDx=0;entryDy=0;" edge="1" parent="1" source="nxoZyWAHLM6JI2tXpM9c-43" target="nxoZyWAHLM6JI2tXpM9c-54">
          <mxGeometry relative="1" as="geometry" />
        </mxCell>
        <mxCell id="nxoZyWAHLM6JI2tXpM9c-43" value="remain_burst_time = 0?" style="rhombus;whiteSpace=wrap;html=1;" vertex="1" parent="1">
          <mxGeometry x="-461.24" y="770" width="212.5" height="80" as="geometry" />
        </mxCell>
        <mxCell id="nxoZyWAHLM6JI2tXpM9c-172" style="edgeStyle=orthogonalEdgeStyle;rounded=0;orthogonalLoop=1;jettySize=auto;html=1;exitX=1;exitY=0.5;exitDx=0;exitDy=0;entryX=0.5;entryY=1;entryDx=0;entryDy=0;" edge="1" parent="1" source="nxoZyWAHLM6JI2tXpM9c-54" target="nxoZyWAHLM6JI2tXpM9c-133">
          <mxGeometry relative="1" as="geometry" />
        </mxCell>
        <mxCell id="nxoZyWAHLM6JI2tXpM9c-54" value="&lt;div&gt;stop_time = run_time&lt;br&gt;turn_around_time = stop_time - start_time + waiting time&lt;br&gt;&lt;/div&gt;&lt;div&gt;completed = True&lt;br&gt;&lt;/div&gt;" style="rounded=0;whiteSpace=wrap;html=1;" vertex="1" parent="1">
          <mxGeometry x="-180.00000000000006" y="775" width="334.45" height="70" as="geometry" />
        </mxCell>
        <mxCell id="nxoZyWAHLM6JI2tXpM9c-94" value="&lt;div&gt;No&lt;/div&gt;" style="text;html=1;strokeColor=none;fillColor=none;align=center;verticalAlign=middle;whiteSpace=wrap;rounded=0;" vertex="1" parent="1">
          <mxGeometry x="-225.94" y="410" width="60" height="30" as="geometry" />
        </mxCell>
        <mxCell id="nxoZyWAHLM6JI2tXpM9c-126" style="edgeStyle=orthogonalEdgeStyle;rounded=0;orthogonalLoop=1;jettySize=auto;html=1;exitX=0.5;exitY=1;exitDx=0;exitDy=0;entryX=0.5;entryY=0;entryDx=0;entryDy=0;" edge="1" parent="1" source="nxoZyWAHLM6JI2tXpM9c-110" target="nxoZyWAHLM6JI2tXpM9c-124">
          <mxGeometry relative="1" as="geometry" />
        </mxCell>
        <mxCell id="nxoZyWAHLM6JI2tXpM9c-156" style="edgeStyle=orthogonalEdgeStyle;rounded=0;orthogonalLoop=1;jettySize=auto;html=1;exitX=1;exitY=0.5;exitDx=0;exitDy=0;entryX=0;entryY=0.5;entryDx=0;entryDy=0;" edge="1" parent="1" source="nxoZyWAHLM6JI2tXpM9c-110" target="nxoZyWAHLM6JI2tXpM9c-154">
          <mxGeometry relative="1" as="geometry">
            <Array as="points">
              <mxPoint x="-156" y="443" />
            </Array>
          </mxGeometry>
        </mxCell>
        <mxCell id="nxoZyWAHLM6JI2tXpM9c-110" value="run_time = temp_process.arrival_time ?" style="rhombus;whiteSpace=wrap;html=1;" vertex="1" parent="1">
          <mxGeometry x="-493.97999999999996" y="403" width="275.96" height="80" as="geometry" />
        </mxCell>
        <mxCell id="nxoZyWAHLM6JI2tXpM9c-114" style="edgeStyle=orthogonalEdgeStyle;rounded=0;orthogonalLoop=1;jettySize=auto;html=1;exitX=0.5;exitY=1;exitDx=0;exitDy=0;entryX=0.5;entryY=0;entryDx=0;entryDy=0;" edge="1" parent="1" source="nxoZyWAHLM6JI2tXpM9c-111" target="nxoZyWAHLM6JI2tXpM9c-113">
          <mxGeometry relative="1" as="geometry" />
        </mxCell>
        <mxCell id="nxoZyWAHLM6JI2tXpM9c-111" value="Bắt đầu" style="ellipse;whiteSpace=wrap;html=1;" vertex="1" parent="1">
          <mxGeometry x="-400" width="90" height="40" as="geometry" />
        </mxCell>
        <mxCell id="nxoZyWAHLM6JI2tXpM9c-116" style="edgeStyle=orthogonalEdgeStyle;rounded=0;orthogonalLoop=1;jettySize=auto;html=1;exitX=0.5;exitY=1;exitDx=0;exitDy=0;entryX=0.5;entryY=0;entryDx=0;entryDy=0;" edge="1" parent="1" source="nxoZyWAHLM6JI2tXpM9c-113" target="nxoZyWAHLM6JI2tXpM9c-115">
          <mxGeometry relative="1" as="geometry" />
        </mxCell>
        <mxCell id="nxoZyWAHLM6JI2tXpM9c-113" value="Input: List các process với arrival_time và burst_time " style="shape=parallelogram;perimeter=parallelogramPerimeter;whiteSpace=wrap;html=1;fixedSize=1;" vertex="1" parent="1">
          <mxGeometry x="-450" y="51" width="190" height="70" as="geometry" />
        </mxCell>
        <mxCell id="nxoZyWAHLM6JI2tXpM9c-118" style="edgeStyle=orthogonalEdgeStyle;rounded=0;orthogonalLoop=1;jettySize=auto;html=1;exitX=0.5;exitY=1;exitDx=0;exitDy=0;entryX=0.5;entryY=0;entryDx=0;entryDy=0;" edge="1" parent="1" source="nxoZyWAHLM6JI2tXpM9c-115" target="nxoZyWAHLM6JI2tXpM9c-117">
          <mxGeometry relative="1" as="geometry" />
        </mxCell>
        <mxCell id="nxoZyWAHLM6JI2tXpM9c-115" value="Sắp xếp các process theo arrival time theo thứ tự từ nhỏ tới lớn vào process_queue" style="rounded=1;whiteSpace=wrap;html=1;" vertex="1" parent="1">
          <mxGeometry x="-442.5" y="132" width="175" height="60" as="geometry" />
        </mxCell>
        <mxCell id="nxoZyWAHLM6JI2tXpM9c-120" style="edgeStyle=orthogonalEdgeStyle;rounded=0;orthogonalLoop=1;jettySize=auto;html=1;exitX=0.5;exitY=1;exitDx=0;exitDy=0;entryX=0.5;entryY=0;entryDx=0;entryDy=0;" edge="1" parent="1" source="nxoZyWAHLM6JI2tXpM9c-117" target="nxoZyWAHLM6JI2tXpM9c-119">
          <mxGeometry relative="1" as="geometry" />
        </mxCell>
        <mxCell id="nxoZyWAHLM6JI2tXpM9c-117" value="run_time = 0" style="rounded=0;whiteSpace=wrap;html=1;" vertex="1" parent="1">
          <mxGeometry x="-414.99" y="205" width="115" height="30" as="geometry" />
        </mxCell>
        <mxCell id="nxoZyWAHLM6JI2tXpM9c-180" style="edgeStyle=orthogonalEdgeStyle;rounded=0;orthogonalLoop=1;jettySize=auto;html=1;exitX=0.5;exitY=1;exitDx=0;exitDy=0;entryX=0.5;entryY=0;entryDx=0;entryDy=0;" edge="1" parent="1" source="nxoZyWAHLM6JI2tXpM9c-119" target="nxoZyWAHLM6JI2tXpM9c-179">
          <mxGeometry relative="1" as="geometry" />
        </mxCell>
        <mxCell id="nxoZyWAHLM6JI2tXpM9c-119" value="num_process = process_queue.qsize()" style="rounded=0;whiteSpace=wrap;html=1;" vertex="1" parent="1">
          <mxGeometry x="-464.99" y="246" width="214.99" height="30" as="geometry" />
        </mxCell>
        <mxCell id="nxoZyWAHLM6JI2tXpM9c-123" style="edgeStyle=orthogonalEdgeStyle;rounded=0;orthogonalLoop=1;jettySize=auto;html=1;exitX=0.5;exitY=1;exitDx=0;exitDy=0;entryX=0.5;entryY=0;entryDx=0;entryDy=0;" edge="1" parent="1" source="nxoZyWAHLM6JI2tXpM9c-121" target="nxoZyWAHLM6JI2tXpM9c-110">
          <mxGeometry relative="1" as="geometry" />
        </mxCell>
        <mxCell id="nxoZyWAHLM6JI2tXpM9c-121" value="process_temp = process_queue.get()" style="rounded=0;whiteSpace=wrap;html=1;" vertex="1" parent="1">
          <mxGeometry x="-458.75" y="353" width="217.5" height="30" as="geometry" />
        </mxCell>
        <mxCell id="nxoZyWAHLM6JI2tXpM9c-157" style="edgeStyle=orthogonalEdgeStyle;rounded=0;orthogonalLoop=1;jettySize=auto;html=1;exitX=0.5;exitY=1;exitDx=0;exitDy=0;entryX=0.5;entryY=0;entryDx=0;entryDy=0;" edge="1" parent="1" source="nxoZyWAHLM6JI2tXpM9c-124" target="nxoZyWAHLM6JI2tXpM9c-140">
          <mxGeometry relative="1" as="geometry" />
        </mxCell>
        <mxCell id="nxoZyWAHLM6JI2tXpM9c-124" value="ready_queue.append(temp_process)" style="rounded=0;whiteSpace=wrap;html=1;" vertex="1" parent="1">
          <mxGeometry x="-465" y="499" width="220" height="30" as="geometry" />
        </mxCell>
        <mxCell id="nxoZyWAHLM6JI2tXpM9c-132" value="Yes" style="text;html=1;strokeColor=none;fillColor=none;align=center;verticalAlign=middle;whiteSpace=wrap;rounded=0;" vertex="1" parent="1">
          <mxGeometry x="-370" y="475" width="60" height="30" as="geometry" />
        </mxCell>
        <mxCell id="nxoZyWAHLM6JI2tXpM9c-133" value="run_time += 1" style="whiteSpace=wrap;html=1;" vertex="1" parent="1">
          <mxGeometry x="250" y="590" width="120" height="30" as="geometry" />
        </mxCell>
        <mxCell id="nxoZyWAHLM6JI2tXpM9c-148" style="edgeStyle=orthogonalEdgeStyle;rounded=0;orthogonalLoop=1;jettySize=auto;html=1;exitX=0.5;exitY=1;exitDx=0;exitDy=0;entryX=0.5;entryY=0;entryDx=0;entryDy=0;" edge="1" parent="1" source="nxoZyWAHLM6JI2tXpM9c-140" target="nxoZyWAHLM6JI2tXpM9c-142">
          <mxGeometry relative="1" as="geometry" />
        </mxCell>
        <mxCell id="nxoZyWAHLM6JI2tXpM9c-165" style="edgeStyle=orthogonalEdgeStyle;rounded=0;orthogonalLoop=1;jettySize=auto;html=1;exitX=0;exitY=0.5;exitDx=0;exitDy=0;entryX=0;entryY=0.5;entryDx=0;entryDy=0;" edge="1" parent="1" source="nxoZyWAHLM6JI2tXpM9c-140" target="nxoZyWAHLM6JI2tXpM9c-43">
          <mxGeometry relative="1" as="geometry">
            <mxPoint x="-640" y="780" as="targetPoint" />
            <Array as="points">
              <mxPoint x="-560" y="593" />
              <mxPoint x="-560" y="810" />
            </Array>
          </mxGeometry>
        </mxCell>
        <mxCell id="nxoZyWAHLM6JI2tXpM9c-140" value="process_running = None?" style="rhombus;whiteSpace=wrap;html=1;" vertex="1" parent="1">
          <mxGeometry x="-469.3" y="553" width="228.61" height="80" as="geometry" />
        </mxCell>
        <mxCell id="nxoZyWAHLM6JI2tXpM9c-150" style="edgeStyle=orthogonalEdgeStyle;rounded=0;orthogonalLoop=1;jettySize=auto;html=1;exitX=0.5;exitY=1;exitDx=0;exitDy=0;entryX=0.5;entryY=0;entryDx=0;entryDy=0;" edge="1" parent="1" source="nxoZyWAHLM6JI2tXpM9c-142" target="nxoZyWAHLM6JI2tXpM9c-41">
          <mxGeometry relative="1" as="geometry" />
        </mxCell>
        <mxCell id="nxoZyWAHLM6JI2tXpM9c-142" value="process_running = ready_queue.get()" style="rounded=0;whiteSpace=wrap;html=1;" vertex="1" parent="1">
          <mxGeometry x="-463.74" y="650" width="217.5" height="20" as="geometry" />
        </mxCell>
        <mxCell id="nxoZyWAHLM6JI2tXpM9c-144" value="Yes" style="text;html=1;strokeColor=none;fillColor=none;align=center;verticalAlign=middle;whiteSpace=wrap;rounded=0;" vertex="1" parent="1">
          <mxGeometry x="-370" y="620" width="60" height="30" as="geometry" />
        </mxCell>
        <mxCell id="nxoZyWAHLM6JI2tXpM9c-158" style="edgeStyle=orthogonalEdgeStyle;rounded=0;orthogonalLoop=1;jettySize=auto;html=1;exitX=1;exitY=0.5;exitDx=0;exitDy=0;entryX=1;entryY=0.5;entryDx=0;entryDy=0;" edge="1" parent="1" source="nxoZyWAHLM6JI2tXpM9c-154" target="nxoZyWAHLM6JI2tXpM9c-140">
          <mxGeometry relative="1" as="geometry">
            <Array as="points">
              <mxPoint x="50" y="443" />
              <mxPoint x="50" y="593" />
            </Array>
          </mxGeometry>
        </mxCell>
        <mxCell id="nxoZyWAHLM6JI2tXpM9c-154" value="in ra giá trị rỗng trên gantt chart" style="shape=parallelogram;perimeter=parallelogramPerimeter;whiteSpace=wrap;html=1;fixedSize=1;" vertex="1" parent="1">
          <mxGeometry x="-158.02" y="425.5" width="200" height="35" as="geometry" />
        </mxCell>
        <mxCell id="nxoZyWAHLM6JI2tXpM9c-171" style="edgeStyle=orthogonalEdgeStyle;rounded=0;orthogonalLoop=1;jettySize=auto;html=1;exitX=0.5;exitY=1;exitDx=0;exitDy=0;entryX=0.5;entryY=0;entryDx=0;entryDy=0;" edge="1" parent="1" source="nxoZyWAHLM6JI2tXpM9c-161" target="nxoZyWAHLM6JI2tXpM9c-28">
          <mxGeometry relative="1" as="geometry" />
        </mxCell>
        <mxCell id="nxoZyWAHLM6JI2tXpM9c-161" value="in ra process trên gantt chart" style="shape=parallelogram;perimeter=parallelogramPerimeter;whiteSpace=wrap;html=1;fixedSize=1;" vertex="1" parent="1">
          <mxGeometry x="-450" y="880" width="200" height="35" as="geometry" />
        </mxCell>
        <mxCell id="nxoZyWAHLM6JI2tXpM9c-167" style="edgeStyle=orthogonalEdgeStyle;rounded=0;orthogonalLoop=1;jettySize=auto;html=1;exitX=0.5;exitY=1;exitDx=0;exitDy=0;entryX=0.47;entryY=-0.057;entryDx=0;entryDy=0;entryPerimeter=0;" edge="1" parent="1" source="nxoZyWAHLM6JI2tXpM9c-43" target="nxoZyWAHLM6JI2tXpM9c-161">
          <mxGeometry relative="1" as="geometry" />
        </mxCell>
        <mxCell id="nxoZyWAHLM6JI2tXpM9c-184" style="edgeStyle=orthogonalEdgeStyle;rounded=0;orthogonalLoop=1;jettySize=auto;html=1;exitX=0;exitY=0.5;exitDx=0;exitDy=0;entryX=1;entryY=0.5;entryDx=0;entryDy=0;" edge="1" parent="1" source="nxoZyWAHLM6JI2tXpM9c-179" target="nxoZyWAHLM6JI2tXpM9c-11">
          <mxGeometry relative="1" as="geometry" />
        </mxCell>
        <mxCell id="nxoZyWAHLM6JI2tXpM9c-189" style="edgeStyle=orthogonalEdgeStyle;rounded=0;orthogonalLoop=1;jettySize=auto;html=1;exitX=1;exitY=0.5;exitDx=0;exitDy=0;entryX=0;entryY=0.5;entryDx=0;entryDy=0;" edge="1" parent="1" source="nxoZyWAHLM6JI2tXpM9c-179" target="nxoZyWAHLM6JI2tXpM9c-188">
          <mxGeometry relative="1" as="geometry" />
        </mxCell>
        <mxCell id="nxoZyWAHLM6JI2tXpM9c-179" value="num_process = 0 and process_running = None?" style="rhombus;whiteSpace=wrap;html=1;" vertex="1" parent="1">
          <mxGeometry x="-523" y="287" width="330" height="52" as="geometry" />
        </mxCell>
        <mxCell id="nxoZyWAHLM6JI2tXpM9c-185" value="" style="endArrow=classic;html=1;rounded=0;" edge="1" parent="1">
          <mxGeometry width="50" height="50" relative="1" as="geometry">
            <mxPoint x="310" y="240" as="sourcePoint" />
            <mxPoint x="-360" y="240" as="targetPoint" />
          </mxGeometry>
        </mxCell>
        <mxCell id="nxoZyWAHLM6JI2tXpM9c-186" value="&lt;div&gt;No&lt;/div&gt;" style="text;html=1;strokeColor=none;fillColor=none;align=center;verticalAlign=middle;whiteSpace=wrap;rounded=0;" vertex="1" parent="1">
          <mxGeometry x="-218.02" y="288" width="60" height="30" as="geometry" />
        </mxCell>
        <mxCell id="nxoZyWAHLM6JI2tXpM9c-187" value="Yes" style="text;html=1;strokeColor=none;fillColor=none;align=center;verticalAlign=middle;whiteSpace=wrap;rounded=0;" vertex="1" parent="1">
          <mxGeometry x="-590" y="288" width="60" height="30" as="geometry" />
        </mxCell>
        <mxCell id="nxoZyWAHLM6JI2tXpM9c-190" style="edgeStyle=orthogonalEdgeStyle;rounded=0;orthogonalLoop=1;jettySize=auto;html=1;exitX=0.5;exitY=1;exitDx=0;exitDy=0;entryX=1;entryY=0.5;entryDx=0;entryDy=0;" edge="1" parent="1" source="nxoZyWAHLM6JI2tXpM9c-188" target="nxoZyWAHLM6JI2tXpM9c-121">
          <mxGeometry relative="1" as="geometry">
            <Array as="points">
              <mxPoint x="-61" y="368" />
            </Array>
          </mxGeometry>
        </mxCell>
        <mxCell id="nxoZyWAHLM6JI2tXpM9c-188" value="process_temp = None?" style="rhombus;whiteSpace=wrap;html=1;" vertex="1" parent="1">
          <mxGeometry x="-165.94" y="273" width="210" height="80" as="geometry" />
        </mxCell>
        <mxCell id="nxoZyWAHLM6JI2tXpM9c-192" value="" style="endArrow=classic;html=1;rounded=0;" edge="1" parent="1">
          <mxGeometry width="50" height="50" relative="1" as="geometry">
            <mxPoint x="70" y="390" as="sourcePoint" />
            <mxPoint x="-350" y="390" as="targetPoint" />
          </mxGeometry>
        </mxCell>
        <mxCell id="nxoZyWAHLM6JI2tXpM9c-193" value="Yes" style="text;html=1;strokeColor=none;fillColor=none;align=center;verticalAlign=middle;whiteSpace=wrap;rounded=0;" vertex="1" parent="1">
          <mxGeometry x="-193" y="347" width="60" height="30" as="geometry" />
        </mxCell>
        <mxCell id="nxoZyWAHLM6JI2tXpM9c-194" value="&lt;div&gt;No&lt;/div&gt;" style="text;html=1;strokeColor=none;fillColor=none;align=center;verticalAlign=middle;whiteSpace=wrap;rounded=0;" vertex="1" parent="1">
          <mxGeometry x="30" y="288" width="60" height="30" as="geometry" />
        </mxCell>
        <mxCell id="nxoZyWAHLM6JI2tXpM9c-195" value="" style="endArrow=none;html=1;rounded=0;" edge="1" parent="1">
          <mxGeometry width="50" height="50" relative="1" as="geometry">
            <mxPoint x="70" y="313" as="sourcePoint" />
            <mxPoint x="70" y="390" as="targetPoint" />
          </mxGeometry>
        </mxCell>
        <mxCell id="nxoZyWAHLM6JI2tXpM9c-196" value="" style="endArrow=none;html=1;rounded=0;exitX=1;exitY=0.5;exitDx=0;exitDy=0;" edge="1" parent="1" source="nxoZyWAHLM6JI2tXpM9c-188">
          <mxGeometry width="50" height="50" relative="1" as="geometry">
            <mxPoint x="80" y="320" as="sourcePoint" />
            <mxPoint x="70" y="313" as="targetPoint" />
          </mxGeometry>
        </mxCell>
        <mxCell id="nxoZyWAHLM6JI2tXpM9c-197" value="" style="endArrow=none;html=1;rounded=0;exitX=0.5;exitY=0;exitDx=0;exitDy=0;" edge="1" parent="1" source="nxoZyWAHLM6JI2tXpM9c-133">
          <mxGeometry width="50" height="50" relative="1" as="geometry">
            <mxPoint x="-260" y="480" as="sourcePoint" />
            <mxPoint x="310" y="240" as="targetPoint" />
          </mxGeometry>
        </mxCell>
      </root>
    </mxGraphModel>
  </diagram>
</mxfile>
